<svg width="160" height="143" viewBox="0 0 160 143" fill="none" xmlns="http://www.w3.org/2000/svg">
<path d="M96.0593 33.75C96.185 27.104 96.2475 20.457 96.2467 13.81C96.2413 11.9927 95.9433 0.904694 96.4946 0C96.8536 0.418761 96.9939 1.16785 96.9911 1.71862C96.9373 12.2848 97.2837 23.0193 97.0281 33.5717C101.567 33.1956 107.599 33.5438 112.253 33.55C118.785 33.5583 125.268 33.3865 131.784 33.3674C131.664 32.0896 131.622 31.5937 131.74 30.3289C131.869 28.956 131.561 27.786 132.153 26.7533C132.271 28.4945 132.585 31.7957 132.502 33.4227C140.862 33.5995 149.11 33.6661 157.469 33.506C158.139 33.4932 159.43 33.5829 160 33.8633C158.341 34.395 135.506 34.5295 132.587 34.402C132.77 42.5083 133.031 50.6627 132.873 58.7664C132.832 60.9038 133.165 67.3481 132.932 69.1519C133.626 69.6359 153.727 69.6848 155.806 69.5583C154.958 70.5343 144.68 70.208 142.831 70.2303C140.589 70.2575 138.018 69.6055 135.597 70.3142C133.541 70.76 131.12 70.4135 128.998 70.3706C118.478 70.1569 107.664 71.2625 97.1898 71.1095C97.8952 81.7668 96.4999 93.3019 97.126 104.062C97.151 104.492 97.0806 105.386 96.7905 105.722L96.4905 105.531C96.179 103.973 96.225 99.4819 96.2214 97.7947C96.2045 91.9765 96.2826 86.1583 96.4558 80.3426C96.5177 77.5941 96.3297 73.6996 96.5488 71.1158C88.8293 71.1341 80.6667 70.4212 73.2159 70.851C70.6476 71.3548 67.3963 71.6024 64.6979 71.7699C64.5923 71.8692 64.4868 71.9685 64.3812 72.0677L64.2692 72.8768L63.9571 72.4869C63.7558 72.7405 63.619 72.9388 63.4379 73.2037C63.4418 72.5026 63.5816 72.2216 63.2197 71.7854C54.0802 71.4421 41.7767 72.0456 32.5898 72.8249L32.0559 72.6285C29.7359 72.8906 25.1663 72.7879 22.6654 72.7892C22.6804 72.5352 22.9065 72.2201 23.0473 71.9695C25.7101 72.0025 28.6404 71.3595 31.186 71.592C31.6752 71.6843 31.9936 71.8282 32.4087 71.6815C33.3499 71.4929 36.7656 71.4341 37.8453 71.4602C45.7655 71.6519 55.5091 69.9091 63.2364 70.6609C63.7445 69.7331 62.9992 58.7856 62.8932 57.0795C62.4481 49.9099 63.2093 42.1786 62.5946 35.1139C61.6658 34.3184 36.4014 34.9738 32.3571 34.703C32.7202 36.6212 32.8125 47.2237 32.2233 49.1636L32.3436 48.7094L32.0557 49.0954C31.9747 44.7998 31.6666 38.82 31.8291 34.6522C29.214 34.9391 8.65408 34.9298 7.01367 34.3527C7.93193 33.8978 28.8774 34.101 31.8959 34.1031C31.7153 32.6136 31.7833 30.0271 31.7572 28.4413L31.5423 19.4669C31.7938 17.2642 31.2931 12.4015 31.6388 10.8876C31.8396 11.8973 32.0017 16.3504 32.0062 17.5918C32.0233 22.3402 32.6849 29.3624 32.4175 33.9719C41.675 34.6796 53.2437 33.7075 62.6682 34.0419C62.4374 28.3801 62.7526 22.4694 62.6815 16.7794C62.677 16.4259 62.9046 16.0013 63.1255 15.7261C63.7916 18.1022 63.2913 29.2204 63.5101 32.478C63.4448 33.0809 63.4379 33.1763 63.5666 33.7672C65.5018 34.5856 79.4864 33.8684 82.7592 34.0903C86.6999 34.3573 91.4676 33.1147 96.0593 33.75ZM96.3912 70.0823C96.7746 66.3581 96.4113 62.7683 96.4582 59.0991C96.5588 51.219 95.891 42.2955 96.2422 34.5165C85.6977 34.737 73.9601 35.1285 63.4507 34.6813C63.8772 41.7554 63.3071 49.4855 63.7541 56.669C63.9753 60.2208 64.6557 66.8876 64.1879 70.2603C64.7268 70.6541 64.4936 70.6002 65.0914 70.5872C68.8809 70.3846 72.5593 70.0823 76.3274 69.8139C80.3892 69.5246 85.0239 70.1986 89.1271 70.2313C91.5535 70.2509 93.9631 70.0915 96.3912 70.0823ZM97.0356 34.501C97.2135 41.276 97.0476 48.1881 97.1238 54.9814C97.1803 60.0097 97.4336 65.1082 97.2814 70.1142C103.092 70.6091 111.261 69.8332 117.437 69.7862C122.528 69.7958 127.516 69.4742 132.522 69.4536C132.134 67.6082 132.203 63.8441 132.201 61.8506L132.226 49.9063C132.213 44.7917 131.846 39.4915 131.777 34.3297C125.391 34.3801 118.779 34.1737 112.268 34.2081C107.961 34.4368 103.639 34.2768 99.3314 34.5076C98.5645 34.5489 97.8025 34.5442 97.0356 34.501Z" fill="#727272"/>
<path d="M64.6279 37.4728L64.9381 37.9372C64.9908 39.1516 65.1211 40.5323 64.8698 41.705C64.2192 41.3315 64.5808 38.2251 64.6279 37.4728Z" fill="#727272"/>
<path d="M63.2366 70.6609L64.188 70.2603C64.7269 70.6541 64.4937 70.6002 65.0915 70.5872C66.2288 70.6431 72.6084 70.719 73.216 70.851C70.6477 71.3548 67.3965 71.6024 64.698 71.7699C64.5924 71.8692 64.4869 71.9685 64.3813 72.0677L64.2694 72.8768L63.9572 72.4869C63.756 72.7405 63.6192 72.9388 63.438 73.2037C63.4419 72.5026 63.5817 72.2216 63.2199 71.7854C54.0803 71.4421 41.7768 72.0456 32.59 72.8249L32.056 72.6285C29.7361 72.8906 25.1664 72.7879 22.6655 72.7892C22.6805 72.5352 22.9066 72.2201 23.0475 71.9695C25.7102 72.0025 28.6405 71.3595 31.1861 71.592C31.6753 71.6843 31.9937 71.8282 32.4088 71.6815C33.35 71.4929 36.7657 71.4341 37.8454 71.4602C45.7657 71.6519 55.5092 69.9091 63.2366 70.6609Z" fill="#727272"/>
<path d="M32.7731 110.399L33.4198 110.039C34.5171 111.166 46.6067 109.506 49.0673 109.812C50.5274 109.994 53.8174 109.43 55.1849 109.954L55.2241 110.301C54.5261 110.776 47.8311 110.685 46.5268 110.691C42.6108 110.709 37.2539 111.802 33.4567 111.289C33.4714 115.46 33.5444 119.63 33.6761 123.799C33.7217 125.348 33.9418 128.752 33.8716 130.149L33.5061 130.343C33.3154 131.49 33.5459 132.533 33.4398 133.701C32.6476 126.456 33.0212 118.89 32.5936 111.768C31.5548 110.998 13.3162 111.7 10.9785 111.927L10.8564 110.892C13.8168 110.607 30.3778 109.939 32.7731 110.399Z" fill="#727272"/>
<path d="M63.4378 73.2036C63.6189 72.9387 63.7557 72.7404 63.957 72.4868L64.2691 72.8767C64.662 79.0067 64.4412 85.7633 64.5654 91.9692C64.6917 98.2791 65.2944 105.775 65.1741 112.006C65.0334 113.411 65.1351 114.545 65.2176 115.947C64.9583 119.746 65.6447 123.835 65.2146 128.265L64.9242 128.471L65.0645 128.81L65.1439 128.666L64.9701 128.664C64.4601 126.876 64.6046 122.53 64.4999 120.498C64.137 113.46 64.3642 106.374 64.1848 99.3613C64.0184 92.8507 63.548 86.2198 63.4735 79.6918C63.4585 78.369 63.2545 74.2703 63.4378 73.2036Z" fill="#727272"/>
<path d="M32.0561 72.6284L32.5901 72.8248C32.9365 81.6877 33.2424 90.7372 33.4236 99.5968C33.4696 101.847 33.6421 108.105 33.4197 110.039L32.7729 110.399C32.6151 109.646 32.6057 108.747 32.6074 107.979C32.6614 99.9161 32.6447 91.9518 32.1358 83.9018C31.9302 80.651 31.5691 75.7764 32.0561 72.6284Z" fill="#727272"/>
<path d="M63.126 15.7261C64.025 16.0252 64.1322 15.8719 64.177 16.8816L64.4172 16.915L64.7368 16.4227C65.4757 17.6305 64.436 19.3854 64.4198 20.7835C64.3861 23.6575 64.5501 26.5858 64.3142 29.4457C64.2012 30.3706 63.6512 31.2581 63.5105 32.478C63.2917 29.2204 63.792 18.1022 63.126 15.7261Z" fill="#727272"/>
<path d="M31.186 71.5918L31.6776 71.4264C32.3235 69.2288 31.3192 54.3452 32.2248 52.8193L32.4481 52.7611C32.7886 53.621 32.7006 70.2077 32.4087 71.6812C31.9936 71.8279 31.6752 71.684 31.186 71.5918Z" fill="#727272"/>
<path d="M10.9782 111.927C9.58895 112.055 0.711447 112.482 0.0505316 112.12L0 111.751C0.781238 111.156 8.44503 111.266 10.8562 110.891L10.9782 111.927Z" fill="#727272"/>
<path d="M33.4394 133.701C33.5455 132.533 33.315 131.49 33.5057 130.343L33.8712 130.149C34.1041 131.64 34.518 141.15 34.1906 142.222L33.9187 142.183C33.151 140.779 33.4638 135.672 33.4394 133.701Z" fill="#727272"/>
<path d="M12.5918 72.4751C15.8238 71.8526 19.7191 71.9706 23.0472 71.9696C22.9063 72.2202 22.6802 72.5352 22.6652 72.7892C19.7964 72.9606 15.3222 72.8534 12.5918 72.4751Z" fill="#727272"/>
<path d="M131.569 24.4374C131.541 21.0757 131.768 17.2277 131.889 13.829C132.431 15.7555 132.239 24.1158 132.16 26.5221C131.978 25.6663 132.052 24.0206 131.914 22.9352C131.677 23.2947 131.633 23.9832 131.569 24.4374Z" fill="#727272"/>
<path d="M131.569 24.4376C131.633 23.9834 131.676 23.2949 131.914 22.9354C132.052 24.0208 131.978 25.6665 132.16 26.5223L132.153 26.7534C131.561 27.786 131.869 28.956 131.74 30.329C131.469 28.6975 131.557 26.1663 131.569 24.4376Z" fill="#727272"/>
<path d="M31.5425 19.4667C31.3811 18.2251 31.1432 11.6554 31.4459 10.7522L31.6391 10.8874C31.2933 12.4013 31.7941 17.264 31.5425 19.4667Z" fill="#727272"/>
</svg>
