<svg preserveAspectRatio="none" overflow="visible" style="display: block;" width="56" height="20.1817" viewBox="0 0 56 20.1817" fill="none" xmlns="http://www.w3.org/2000/svg">
<g id="Group 26">
<path id="Vector" d="M54.965 8.36175C55.6821 9.06712 55.7964 10.3609 55.9314 11.3101C55.9389 11.359 55.9463 11.4079 55.954 11.4583C55.9716 11.5961 55.981 11.7315 55.9874 11.8704C55.9893 11.9092 55.9911 11.948 55.993 11.988C56.036 13.0493 55.8952 13.9631 55.1891 14.8012C54.7398 15.2769 54.2489 15.5102 53.5958 15.533C53.0218 15.5221 52.5398 15.3727 52.1007 14.9955C51.8018 14.6789 51.5631 14.3149 51.3149 13.9582C50.5604 12.8846 50.5604 12.8846 49.4745 12.196C49.3122 12.1936 49.3122 12.1936 49.1768 12.3081C48.9898 12.5258 48.8811 12.7892 48.7601 13.0469C48.2771 14.0505 48.2771 14.0505 47.9758 14.4475C47.9473 14.4858 47.9189 14.5241 47.8895 14.5635C47.5385 15.0011 47.0223 15.3571 46.4631 15.456C45.8064 15.527 45.2315 15.3982 44.6948 15.0043C44.2791 14.653 43.88 14.2662 43.5567 13.8278C43.339 13.539 43.1302 13.4436 42.7759 13.3901C42.2475 13.3562 41.9604 13.5526 41.5683 13.8928C39.5138 15.6636 35.9921 15.5777 33.4651 15.4C32.5707 15.329 31.6713 15.2332 30.7899 15.0638C30.7479 15.0559 30.706 15.048 30.6628 15.0398C30.3021 14.9628 29.9557 14.8389 29.7149 14.5491C29.5486 14.2854 29.5108 14.0167 29.5643 13.7113C29.6583 13.4036 29.8437 13.2279 30.1035 13.0469C30.5052 12.8461 31.0941 13.0121 31.5147 13.0924C34.0676 13.5663 37.8542 13.9287 40.1322 12.4306C40.2534 12.3383 40.3735 12.2452 40.4928 12.1505C41.2843 11.5231 42.1547 11.2666 43.1575 11.3661C44.1932 11.5461 44.811 12.1153 45.4448 12.9033C45.6393 13.1324 45.8366 13.3423 46.1269 13.4391C46.4613 13.1061 46.6421 12.7609 46.8237 12.3291C47.0342 11.8508 47.2339 11.4232 47.5836 11.03C47.6177 10.9892 47.6519 10.9484 47.6871 10.9063C48.0561 10.4979 48.57 10.2142 49.1225 10.1762C50.1371 10.1481 50.9062 10.5335 51.6383 11.2245C51.7254 11.3084 51.8115 11.3932 51.8976 11.4782C51.9293 11.5086 51.961 11.539 51.9936 11.5703C52.2381 11.8077 52.449 12.0605 52.6539 12.3326C52.6855 12.374 52.717 12.4154 52.7495 12.4581C52.9622 12.7402 53.156 13.0267 53.3337 13.3323C53.4067 13.4561 53.4067 13.4561 53.5783 13.4951C53.8059 13.2979 53.8962 13.1146 53.9269 12.8128C53.9338 12.6677 53.9358 12.5234 53.9355 12.3781C53.9354 12.3245 53.9353 12.271 53.9352 12.2158C53.9208 11.346 53.8 10.3373 53.3682 9.5663C53.2628 9.32389 53.2557 9.10483 53.2982 8.84497C53.424 8.53099 53.613 8.32969 53.9145 8.17266C54.2795 8.07572 54.6595 8.13159 54.965 8.36175Z" fill="#F8B937"/>
<path id="Vector_2" d="M17.6656 6.82809C18.4116 7.4126 18.891 8.12162 19.0102 9.06912C19.029 9.38767 19.0296 9.70704 19.0329 10.0261C18.9745 11.7267 18.9745 11.7267 19.5774 13.2465C19.8212 13.4334 20.0577 13.416 20.3548 13.3831C20.7793 13.2755 21.1617 13.1271 21.5453 12.9174C21.8633 12.7524 22.1295 12.695 22.4838 12.7668C22.763 12.8738 22.9863 13.044 23.1211 13.3183C23.2165 13.6477 23.2079 13.9842 23.079 14.3005C22.324 15.0556 21.0381 15.4285 19.9996 15.458C19.7294 15.4554 19.4919 15.4244 19.2343 15.344C19.1885 15.3302 19.1427 15.3164 19.0955 15.3022C18.3225 15.033 17.842 14.4274 17.4835 13.7158C17.072 12.7676 17 11.7029 16.9821 10.6818C16.9812 10.6359 16.9803 10.5899 16.9794 10.5426C16.975 10.31 16.972 10.0774 16.9711 9.84476C16.9658 9.3293 16.9513 8.94236 16.5906 8.54037C16.3734 8.41971 16.177 8.3783 15.9288 8.39681C15.6818 8.53103 15.5765 8.69665 15.4805 8.95707C15.3831 9.43859 15.3485 9.91286 15.351 10.4032C15.3513 10.4705 15.3516 10.5379 15.3519 10.6072C15.3848 13.1333 15.8889 15.7161 16.4879 18.1628C16.5042 18.2299 16.5206 18.2969 16.5374 18.3661C16.5668 18.4843 16.5973 18.6022 16.6291 18.7198C16.7278 19.1097 16.732 19.4338 16.5245 19.7891C16.4966 19.8186 16.4687 19.8481 16.44 19.8786C16.4124 19.9091 16.3848 19.9397 16.3564 19.9712C16.1024 20.1905 15.8605 20.1861 15.5355 20.1797C15.2875 20.1537 15.1723 20.0933 14.9763 19.9381C14.7877 19.6925 14.6916 19.4516 14.6152 19.1551C14.6036 19.1114 14.5919 19.0677 14.5799 19.0228C14.4344 18.466 14.3153 17.9033 14.199 17.3399C14.187 17.2822 14.175 17.2245 14.1626 17.1651C13.801 15.4168 13.4988 13.6509 13.3516 11.8704C13.3477 11.8237 13.3438 11.777 13.3398 11.7288C13.3185 11.4586 13.3043 11.1889 13.2955 10.918C13.2937 10.8617 13.2937 10.8617 13.2918 10.8043C13.2549 9.49793 13.362 8.16646 14.2355 7.12638C15.1577 6.16201 16.5876 6.09558 17.6656 6.82809Z" fill="#F8B937"/>
<path id="Vector_3" d="M7.42976 6.80999C8.35469 7.60642 9.39667 8.52802 9.59791 9.79752C9.65953 10.768 9.36782 11.4698 8.73453 12.1997C8.64939 12.2959 8.56349 12.3914 8.4774 12.4868C8.44642 12.5215 8.41545 12.5562 8.38354 12.592C7.38018 13.7134 6.28043 14.5668 4.72367 14.6718C3.43839 14.6992 2.25657 14.2422 1.3061 13.3832C0.460973 12.5392 0.00980528 11.3857 0 10.1967C0 8.91568 0.514074 7.83684 1.3827 6.91088C3.06521 5.29457 5.67529 5.364 7.42976 6.80999ZM2.60148 8.50981C2.0855 9.16674 1.95973 9.87717 2.03443 10.6939C2.16347 11.3134 2.53145 11.8407 3.0429 12.2066C3.59742 12.5567 4.293 12.7395 4.94777 12.6548C5.65085 12.482 6.13769 12.053 6.63555 11.5483C6.70737 11.4775 6.70737 11.4775 6.78065 11.4052C7.3404 10.8747 7.3404 10.8747 7.623 10.1862C7.53655 9.39874 6.66402 8.7338 6.08886 8.26097C5.03388 7.42933 3.52159 7.52274 2.60148 8.50981Z" fill="#F8B937"/>
<path id="Vector_4" d="M9.61231 5.17656C9.73579 5.2847 9.85105 5.39729 9.96547 5.51496C10.0067 5.5557 10.048 5.59645 10.0905 5.63843C10.1715 5.71859 10.2521 5.79921 10.3321 5.88033C10.418 5.96729 10.5057 6.0526 10.5938 6.13737C11.7296 7.23122 12.4259 8.53282 12.4748 10.1216C12.4911 11.6915 11.8282 12.9909 10.7496 14.0989C10.6508 14.1992 10.5515 14.299 10.4519 14.3986C10.35 14.5007 10.2491 14.6037 10.1481 14.7068C10.0825 14.7727 10.0169 14.8385 9.95124 14.9043C9.92159 14.9348 9.89193 14.9652 9.86137 14.9966C9.59986 15.255 9.35777 15.3831 8.98502 15.4245C8.67962 15.4097 8.43246 15.3027 8.21882 15.0829C8.03086 14.825 7.99661 14.5883 7.99188 14.2742C8.12318 13.6996 8.65593 13.3053 9.06515 12.9149C9.55172 12.449 9.95398 11.9822 10.2071 11.3451C10.2289 11.2916 10.2507 11.238 10.2732 11.1828C10.539 10.4159 10.4311 9.47519 10.089 8.75574C9.81199 8.23253 9.42368 7.85937 8.99903 7.45485C8.89574 7.35583 8.7927 7.25659 8.69015 7.15681C8.62693 7.09535 8.56329 7.03433 8.49915 6.97383C8.26107 6.74328 8.06178 6.49886 7.99932 6.16451C8.00435 5.73636 8.07273 5.49582 8.38274 5.18581C8.77644 4.9386 9.21806 4.91085 9.61231 5.17656Z" fill="#F8B937"/>
<path id="Vector_5" d="M17.0492 0.32908C17.5674 0.704085 17.9104 1.16005 18.0577 1.78575C18.1035 2.30824 18.0938 2.77659 17.8336 3.24242C17.8111 3.28539 17.7886 3.32836 17.7655 3.37263C17.4585 3.89678 16.9549 4.21663 16.3793 4.38416C15.7499 4.51263 15.2056 4.39761 14.6576 4.0758C14.1707 3.74844 13.888 3.30164 13.7111 2.74825C13.596 2.14841 13.6697 1.5475 14.0002 1.03137C14.7104 0.0699347 15.9765 -0.340171 17.0492 0.32908Z" fill="#F8B937"/>
<path id="Vector_6" d="M25.4217 13.2119C25.7324 13.3977 25.9753 13.6428 26.0704 13.9994C26.1134 14.3766 26.0881 14.7033 25.8462 15.0078C25.5721 15.2641 25.2931 15.3948 24.917 15.4088C24.5655 15.386 24.3543 15.2743 24.1165 15.0148C23.8999 14.7435 23.801 14.5342 23.8118 14.1777C23.8561 13.8681 23.9833 13.5921 24.2215 13.3866C24.5895 13.1336 24.9877 13.0425 25.4217 13.2119Z" fill="#F8B937"/>
<path id="Vector_7" d="M28.105 13.1538C28.4082 13.334 28.6216 13.5562 28.7801 13.8734C28.8439 14.2047 28.8183 14.4996 28.6646 14.8013C28.3752 15.1376 28.1189 15.3203 27.6736 15.3615C27.2954 15.3289 27.059 15.238 26.8017 14.9519C26.5657 14.668 26.5514 14.4207 26.5549 14.0598C26.593 13.718 26.7775 13.4962 27.0293 13.2746C27.3376 13.0534 27.7487 13.0149 28.105 13.1538Z" fill="#F8B937"/>
</g>
</svg>
